<mxfile host="app.diagrams.net" modified="2021-09-07T17:45:22.495Z" agent="5.0 (Windows NT 10.0; Win64; x64) AppleWebKit/537.36 (KHTML, like Gecko) Chrome/86.0.4240.183 Safari/537.36" etag="lL2Z7IvpgxOtNcS_pwrZ" version="15.1.1" type="github">
  <diagram id="9tte5DxjwHUWS7HEezGu" name="Page-1">
    <mxGraphModel dx="1422" dy="794" grid="1" gridSize="10" guides="1" tooltips="1" connect="1" arrows="1" fold="1" page="1" pageScale="1" pageWidth="827" pageHeight="1169" math="0" shadow="0">
      <root>
        <mxCell id="0" />
        <mxCell id="1" parent="0" />
        <mxCell id="JSoTzA51Q1RG6e945Nf0-3" style="edgeStyle=orthogonalEdgeStyle;rounded=0;orthogonalLoop=1;jettySize=auto;html=1;exitX=0.5;exitY=0;exitDx=0;exitDy=0;exitPerimeter=0;entryX=0.5;entryY=1;entryDx=0;entryDy=0;" edge="1" parent="1" source="JSoTzA51Q1RG6e945Nf0-1">
          <mxGeometry relative="1" as="geometry">
            <mxPoint x="97.5" y="230" as="targetPoint" />
          </mxGeometry>
        </mxCell>
        <mxCell id="JSoTzA51Q1RG6e945Nf0-1" value="Кондиционер" style="shape=umlActor;verticalLabelPosition=bottom;verticalAlign=top;html=1;outlineConnect=0;" vertex="1" parent="1">
          <mxGeometry x="80" y="290" width="35" height="70" as="geometry" />
        </mxCell>
        <mxCell id="JSoTzA51Q1RG6e945Nf0-13" value="Достигнуть температуры 24 градуса" style="ellipse;whiteSpace=wrap;html=1;" vertex="1" parent="1">
          <mxGeometry x="40" y="150" width="120" height="80" as="geometry" />
        </mxCell>
        <mxCell id="JSoTzA51Q1RG6e945Nf0-31" value="" style="edgeStyle=orthogonalEdgeStyle;rounded=0;orthogonalLoop=1;jettySize=auto;html=1;" edge="1" parent="1" source="JSoTzA51Q1RG6e945Nf0-23" target="JSoTzA51Q1RG6e945Nf0-30">
          <mxGeometry relative="1" as="geometry" />
        </mxCell>
        <mxCell id="JSoTzA51Q1RG6e945Nf0-23" value="Температура меньше 24 градусов" style="ellipse;whiteSpace=wrap;html=1;verticalAlign=middle;" vertex="1" parent="1">
          <mxGeometry x="320" y="150" width="120" height="80" as="geometry" />
        </mxCell>
        <mxCell id="JSoTzA51Q1RG6e945Nf0-24" value="" style="endArrow=block;dashed=1;endFill=0;endSize=12;html=1;exitX=0;exitY=0.5;exitDx=0;exitDy=0;entryX=1;entryY=0.3333333333333333;entryDx=0;entryDy=0;entryPerimeter=0;" edge="1" parent="1" source="JSoTzA51Q1RG6e945Nf0-23" target="JSoTzA51Q1RG6e945Nf0-1">
          <mxGeometry width="160" relative="1" as="geometry">
            <mxPoint x="330" y="370" as="sourcePoint" />
            <mxPoint x="490" y="370" as="targetPoint" />
          </mxGeometry>
        </mxCell>
        <mxCell id="JSoTzA51Q1RG6e945Nf0-33" value="" style="edgeStyle=orthogonalEdgeStyle;rounded=0;orthogonalLoop=1;jettySize=auto;html=1;" edge="1" parent="1" source="JSoTzA51Q1RG6e945Nf0-25" target="JSoTzA51Q1RG6e945Nf0-32">
          <mxGeometry relative="1" as="geometry" />
        </mxCell>
        <mxCell id="JSoTzA51Q1RG6e945Nf0-25" value="Температура больше 24 градусов" style="ellipse;whiteSpace=wrap;html=1;verticalAlign=middle;" vertex="1" parent="1">
          <mxGeometry x="320" y="270" width="120" height="80" as="geometry" />
        </mxCell>
        <mxCell id="JSoTzA51Q1RG6e945Nf0-26" value="" style="endArrow=block;dashed=1;endFill=0;endSize=12;html=1;exitX=0;exitY=0.5;exitDx=0;exitDy=0;entryX=1;entryY=0.3333333333333333;entryDx=0;entryDy=0;entryPerimeter=0;" edge="1" parent="1" source="JSoTzA51Q1RG6e945Nf0-25" target="JSoTzA51Q1RG6e945Nf0-1">
          <mxGeometry width="160" relative="1" as="geometry">
            <mxPoint x="330" y="360" as="sourcePoint" />
            <mxPoint x="120" y="310" as="targetPoint" />
          </mxGeometry>
        </mxCell>
        <mxCell id="JSoTzA51Q1RG6e945Nf0-35" value="" style="edgeStyle=orthogonalEdgeStyle;rounded=0;orthogonalLoop=1;jettySize=auto;html=1;" edge="1" parent="1" source="JSoTzA51Q1RG6e945Nf0-27" target="JSoTzA51Q1RG6e945Nf0-34">
          <mxGeometry relative="1" as="geometry" />
        </mxCell>
        <mxCell id="JSoTzA51Q1RG6e945Nf0-27" value="Температура равна 24 градуса" style="ellipse;whiteSpace=wrap;html=1;verticalAlign=middle;" vertex="1" parent="1">
          <mxGeometry x="320" y="400" width="120" height="80" as="geometry" />
        </mxCell>
        <mxCell id="JSoTzA51Q1RG6e945Nf0-28" value="" style="endArrow=block;dashed=1;endFill=0;endSize=12;html=1;exitX=0;exitY=0.5;exitDx=0;exitDy=0;entryX=1;entryY=0.3333333333333333;entryDx=0;entryDy=0;entryPerimeter=0;" edge="1" parent="1" source="JSoTzA51Q1RG6e945Nf0-27" target="JSoTzA51Q1RG6e945Nf0-1">
          <mxGeometry width="160" relative="1" as="geometry">
            <mxPoint x="330" y="360" as="sourcePoint" />
            <mxPoint x="490" y="360" as="targetPoint" />
          </mxGeometry>
        </mxCell>
        <mxCell id="JSoTzA51Q1RG6e945Nf0-37" value="" style="edgeStyle=orthogonalEdgeStyle;rounded=0;orthogonalLoop=1;jettySize=auto;html=1;" edge="1" parent="1" source="JSoTzA51Q1RG6e945Nf0-30" target="JSoTzA51Q1RG6e945Nf0-36">
          <mxGeometry relative="1" as="geometry" />
        </mxCell>
        <mxCell id="JSoTzA51Q1RG6e945Nf0-30" value="Греть" style="ellipse;whiteSpace=wrap;html=1;" vertex="1" parent="1">
          <mxGeometry x="520" y="160" width="120" height="60" as="geometry" />
        </mxCell>
        <mxCell id="JSoTzA51Q1RG6e945Nf0-32" value="Охлаждать" style="ellipse;whiteSpace=wrap;html=1;" vertex="1" parent="1">
          <mxGeometry x="520" y="280" width="120" height="60" as="geometry" />
        </mxCell>
        <mxCell id="JSoTzA51Q1RG6e945Nf0-34" value="Выключить кондиционер" style="ellipse;whiteSpace=wrap;html=1;verticalAlign=middle;" vertex="1" parent="1">
          <mxGeometry x="520" y="400" width="120" height="80" as="geometry" />
        </mxCell>
        <mxCell id="JSoTzA51Q1RG6e945Nf0-50" style="edgeStyle=orthogonalEdgeStyle;rounded=0;orthogonalLoop=1;jettySize=auto;html=1;exitX=1;exitY=0.5;exitDx=0;exitDy=0;entryX=0;entryY=0.5;entryDx=0;entryDy=0;" edge="1" parent="1" source="JSoTzA51Q1RG6e945Nf0-36" target="JSoTzA51Q1RG6e945Nf0-48">
          <mxGeometry relative="1" as="geometry" />
        </mxCell>
        <mxCell id="JSoTzA51Q1RG6e945Nf0-36" value="Достигнуть нужной температуры" style="ellipse;whiteSpace=wrap;html=1;" vertex="1" parent="1">
          <mxGeometry x="720" y="160" width="120" height="60" as="geometry" />
        </mxCell>
        <mxCell id="JSoTzA51Q1RG6e945Nf0-51" style="edgeStyle=orthogonalEdgeStyle;rounded=0;orthogonalLoop=1;jettySize=auto;html=1;exitX=1;exitY=0.5;exitDx=0;exitDy=0;entryX=0;entryY=0.5;entryDx=0;entryDy=0;" edge="1" parent="1" source="JSoTzA51Q1RG6e945Nf0-38" target="JSoTzA51Q1RG6e945Nf0-49">
          <mxGeometry relative="1" as="geometry" />
        </mxCell>
        <mxCell id="JSoTzA51Q1RG6e945Nf0-38" value="Достигнуть нужной температуры" style="ellipse;whiteSpace=wrap;html=1;" vertex="1" parent="1">
          <mxGeometry x="720" y="280" width="120" height="60" as="geometry" />
        </mxCell>
        <mxCell id="JSoTzA51Q1RG6e945Nf0-40" value="" style="endArrow=classic;html=1;exitX=1;exitY=0.5;exitDx=0;exitDy=0;entryX=0;entryY=0.5;entryDx=0;entryDy=0;" edge="1" parent="1" source="JSoTzA51Q1RG6e945Nf0-32" target="JSoTzA51Q1RG6e945Nf0-38">
          <mxGeometry width="50" height="50" relative="1" as="geometry">
            <mxPoint x="390" y="370" as="sourcePoint" />
            <mxPoint x="440" y="320" as="targetPoint" />
          </mxGeometry>
        </mxCell>
        <mxCell id="JSoTzA51Q1RG6e945Nf0-48" value="Выключить кондиционер" style="ellipse;whiteSpace=wrap;html=1;verticalAlign=middle;" vertex="1" parent="1">
          <mxGeometry x="920" y="150" width="120" height="80" as="geometry" />
        </mxCell>
        <mxCell id="JSoTzA51Q1RG6e945Nf0-49" value="Выключить кондиционер" style="ellipse;whiteSpace=wrap;html=1;verticalAlign=middle;" vertex="1" parent="1">
          <mxGeometry x="920" y="270" width="120" height="80" as="geometry" />
        </mxCell>
      </root>
    </mxGraphModel>
  </diagram>
</mxfile>
